<svg xmlns="http://www.w3.org/2000/svg" xmlns:xlink="http://www.w3.org/1999/xlink" viewBox="0 0 50 50"><defs><style>.cls-1{fill:none;}.cls-2{isolation:isolate;}.cls-3{fill:url(#未命名的渐变_138);}.cls-4{fill:url(#未命名的渐变_138-2);}.cls-5{fill:url(#未命名的渐变_138-3);}.cls-6{fill:url(#未命名的渐变_138-4);}.cls-7{clip-path:url(#clip-path);}.cls-8{opacity:0.4;mix-blend-mode:soft-light;}.cls-9{clip-path:url(#clip-path-2);}.cls-10{clip-path:url(#clip-path-3);}.cls-11{clip-path:url(#clip-path-4);}</style><linearGradient id="未命名的渐变_138" x1="23.13" y1="6.6" x2="54.48" y2="38.15" gradientUnits="userSpaceOnUse"><stop offset="0" stop-color="#9e98ff"/><stop offset="1" stop-color="#c641ff"/></linearGradient><linearGradient id="未命名的渐变_138-2" x1="6.57" y1="23.06" x2="37.92" y2="54.61" xlink:href="#未命名的渐变_138"/><linearGradient id="未命名的渐变_138-3" x1="14.35" y1="15.33" x2="45.7" y2="46.88" xlink:href="#未命名的渐变_138"/><linearGradient id="未命名的渐变_138-4" x1="5.64" y1="23.98" x2="37" y2="55.53" xlink:href="#未命名的渐变_138"/><clipPath id="clip-path"><path class="cls-1" d="M35,37.24h4.57a1.94,1.94,0,0,0,1.95-2V6.39a2,2,0,0,0-1.95-2H35a1.94,1.94,0,0,0-2,2V35.28A1.93,1.93,0,0,0,35,37.24Z"/></clipPath><clipPath id="clip-path-2"><path class="cls-1" d="M22.83,37.24h4.56c1.3,0,1.95-.65,1.95-1.31V16.38c0-.65-1.08-1.3-1.95-1.3H22.83c-1.09,0-2,.65-2,1.3V35.94C20.87,36.59,22,37.24,22.83,37.24Z"/></clipPath><clipPath id="clip-path-3"><path class="cls-1" d="M10.44,37h4.78c1.31,0,2-.43,2-1.08v-13c0-.65-1.09-1.09-2-1.09H10.44c-1.3,0-1.95.44-1.95,1.09v13h0C8.49,36.37,9.58,37,10.44,37Z"/></clipPath><clipPath id="clip-path-4"><path class="cls-1" d="M48.24,41.38H1.81A1.81,1.81,0,0,0,0,43.19v.57a1.81,1.81,0,0,0,1.81,1.81H48.19A1.81,1.81,0,0,0,50,43.76v-.61A1.76,1.76,0,0,0,48.24,41.38Z"/></clipPath></defs><title>首页图标</title><g class="cls-2"><g id="图层_1" data-name="图层 1"><path class="cls-3" d="M35,37.24h4.57a1.94,1.94,0,0,0,1.95-2V6.39a2,2,0,0,0-1.95-2H35a1.94,1.94,0,0,0-2,2V35.28A1.93,1.93,0,0,0,35,37.24Z"/><path class="cls-4" d="M10.44,37h4.78c1.31,0,2-.43,2-1.08v-13c0-.65-1.09-1.09-2-1.09H10.44c-1.3,0-1.95.44-1.95,1.09v13h0C8.49,36.37,9.58,37,10.44,37Z"/><path class="cls-5" d="M22.83,37.24h4.56c1.3,0,1.95-.65,1.95-1.31V16.38c0-.65-1.08-1.3-1.95-1.3H22.83c-1.09,0-2,.65-2,1.3V35.94C20.87,36.59,22,37.24,22.83,37.24Z"/><path class="cls-6" d="M48.24,41.38H1.81A1.81,1.81,0,0,0,0,43.19v.57a1.81,1.81,0,0,0,1.81,1.81H48.19A1.81,1.81,0,0,0,50,43.76v-.61A1.76,1.76,0,0,0,48.24,41.38Z"/><g class="cls-7"><rect class="cls-8" x="-0.84" y="17.28" width="84.7" height="42.4" transform="translate(-15.05 40.62) rotate(-45)"/></g><g class="cls-9"><rect class="cls-8" x="-0.4" y="16.84" width="84.7" height="42.4" transform="translate(-14.61 40.8) rotate(-45)"/></g><g class="cls-10"><rect class="cls-8" x="-2.11" y="18.54" width="84.7" height="42.4" transform="translate(-16.32 40.1) rotate(-45)"/></g><g class="cls-11"><rect class="cls-8" x="-3.38" y="19.81" width="84.7" height="42.4" transform="translate(-17.59 39.57) rotate(-45)"/></g></g></g></svg>