<svg xmlns="http://www.w3.org/2000/svg" xmlns:xlink="http://www.w3.org/1999/xlink" viewBox="0 0 50 50"><defs><style>.cls-1{fill:none;}.cls-2{isolation:isolate;}.cls-3{clip-path:url(#clip-path);}.cls-4{opacity:0.4;mix-blend-mode:soft-light;}.cls-5{clip-path:url(#clip-path-2);}.cls-6{clip-path:url(#clip-path-3);}.cls-7{fill:url(#未命名的渐变_141);}.cls-8{clip-path:url(#clip-path-4);}.cls-9{opacity:0.2;}</style><clipPath id="clip-path"><path class="cls-1" d="M44.9-81.78C42.72-76,33-75.13,15.17-69.94S6.88-43.58,7.44-41.47c.51,1.87-.23,8-.39,9.28a.23.23,0,0,0,.22.26l1.48.12h0s.29,0,.32-.23l0-.29.17-1.61.53-5.92a58.9,58.9,0,0,1,1.39-8.45,25.24,25.24,0,0,1,1.64-4.64,16.08,16.08,0,0,1,1.31-2.23l.36-.5.42-.52c.28-.35.57-.65.87-1a17.45,17.45,0,0,1,4.1-3,34.45,34.45,0,0,1,4.41-1.94c2.91-1.07,5.62-1.95,7.85-3a32,32,0,0,0,3-1.52A23.44,23.44,0,0,0,37.26-68c.45-.33.88-.67,1.3-1l.44-.39-.42.42c-.27.27-.69.65-1.23,1.12a25.45,25.45,0,0,1-2.08,1.56,31.63,31.63,0,0,1-2.91,1.72c-2.19,1.16-4.89,2.22-7.69,3.44a33,33,0,0,0-4.14,2.12,16.2,16.2,0,0,0-3.6,3c-.24.3-.5.6-.72.9l-.32.46-.33.51a14.38,14.38,0,0,0-1,2,23.65,23.65,0,0,0-1.23,4.36,54.1,54.1,0,0,0-.76,7.78c7.05-1.17,20.65-4.72,26.28-15.19C46.55-69.62,46.68-75.36,45-81.78A0,0,0,0,0,44.9-81.78Z"/></clipPath><clipPath id="clip-path-2"><path class="cls-1" d="M-78.92,41.39l3.79-4.13,1.4,1.24-3.87,4.21a.18.18,0,0,0,0,.22,4.61,4.61,0,0,1,.7,2.44A4.66,4.66,0,0,1-81.61,50a4.67,4.67,0,0,1-4.71-4.63,4.67,4.67,0,0,1,4.71-4.63,4.78,4.78,0,0,1,2.46.68A.17.17,0,0,0-78.92,41.39Z"/></clipPath><clipPath id="clip-path-3"><path class="cls-1" d="M-64.26,5.88A19.12,19.12,0,0,0-83.38,25,19.12,19.12,0,0,0-64.26,44.12,19.12,19.12,0,0,0-45.14,25,19.12,19.12,0,0,0-64.26,5.88Zm-3.16,29.44c-1.25,0-2.12-.52-2.12-1.68a14,14,0,0,1,1.43-4.5l2.43-5.38h0c.24-.55-.07-.83-.35-.83-1.28,0-3,2.67-3.58,2.67a.46.46,0,0,1-.45-.4c0-.55,1.53-1.84,2-2.24a8.24,8.24,0,0,1,5.22-2.05c1.49,0,3.09.8,1.83,3.77l-2.5,6a5.55,5.55,0,0,0-.58,1.72.4.4,0,0,0,.41.42c1,0,3-2.6,3.44-2.6a.47.47,0,0,1,.42.46C-59.84,31.53-63.91,35.32-67.42,35.32Zm6.07-15.78a2.24,2.24,0,0,1-2.51-2.21h0a2.86,2.86,0,0,1,3-2.59,2.28,2.28,0,0,1,2.55,2.2A2.83,2.83,0,0,1-61.35,19.54Z"/></clipPath><linearGradient id="未命名的渐变_141" x1="9.65" y1="9.2" x2="36.36" y2="35.92" gradientUnits="userSpaceOnUse"><stop offset="0" stop-color="#60d6e0"/><stop offset="1" stop-color="#0088e1"/></linearGradient><clipPath id="clip-path-4"><path class="cls-1" d="M43.24,18a6.76,6.76,0,0,0-6.74,6.31H30.24a7.42,7.42,0,0,0-1.68-4.71l3-3A2.18,2.18,0,1,0,34,12.93a2.12,2.12,0,0,0-1.2-.36A2.18,2.18,0,0,0,31,16l-3,3a7.47,7.47,0,0,0-4.74-2.09V9.71a4,4,0,1,0-.88,0v7.17A7.42,7.42,0,0,0,17.6,19L15.14,16.5a3.41,3.41,0,1,0-6-2.26h0a3.4,3.4,0,0,0,5.29,2.84L17,19.61a7.47,7.47,0,0,0-1.68,4.71H7.51a3.77,3.77,0,1,0,0,.88h7.91a7.44,7.44,0,0,0,2,4.3l-3.18,3.19a2.57,2.57,0,0,0-3.58.62,2.52,2.52,0,0,0-.46,1.48,2.55,2.55,0,0,0,2.56,2.57h0a2.57,2.57,0,0,0,2.11-4l3.2-3.21a7.45,7.45,0,0,0,4.27,1.66v8.36a4.07,4.07,0,1,0,.89,0V31.76a7.4,7.4,0,0,0,4.26-1.66l3.13,3.13a2.63,2.63,0,0,0-.5,1.55A2.68,2.68,0,1,0,32.8,32.1a2.73,2.73,0,0,0-1.56.5l-3.09-3.1a7.44,7.44,0,0,0,2-4.29h6.32A6.75,6.75,0,1,0,43.24,18ZM12.59,15.24a1,1,0,1,1,1-1A1,1,0,0,1,12.59,15.24ZM32.81,33.31a1.48,1.48,0,1,1-1.48,1.47A1.47,1.47,0,0,1,32.81,33.31ZM43.24,29a4.24,4.24,0,1,1,4.24-4.23A4.23,4.23,0,0,1,43.24,29Z"/></clipPath></defs><title>首页图标</title><g class="cls-2"><g id="图层_1" data-name="图层 1"><g class="cls-3"><rect class="cls-4" x="-6.78" y="-61.71" width="92.87" height="46.49" transform="translate(38.82 16.77) rotate(-45)"/></g><g class="cls-5"><rect class="cls-4" x="-90.59" y="17.54" width="89" height="44.55" transform="translate(-41.65 -20.93) rotate(-45)"/></g><g class="cls-6"><rect class="cls-4" x="-90.59" y="17.54" width="89" height="44.55" transform="translate(-41.65 -20.93) rotate(-45)"/></g><path class="cls-7" d="M43.24,18a6.76,6.76,0,0,0-6.74,6.31H30.24a7.42,7.42,0,0,0-1.68-4.71l3-3A2.18,2.18,0,1,0,34,12.93a2.12,2.12,0,0,0-1.2-.36A2.18,2.18,0,0,0,31,16l-3,3a7.47,7.47,0,0,0-4.74-2.09V9.71a4,4,0,1,0-.88,0v7.17A7.42,7.42,0,0,0,17.6,19L15.14,16.5a3.41,3.41,0,1,0-6-2.26h0a3.4,3.4,0,0,0,5.29,2.84L17,19.61a7.47,7.47,0,0,0-1.68,4.71H7.51a3.77,3.77,0,1,0,0,.88h7.91a7.44,7.44,0,0,0,2,4.3l-3.18,3.19a2.57,2.57,0,0,0-3.58.62,2.52,2.52,0,0,0-.46,1.48,2.55,2.55,0,0,0,2.56,2.57h0a2.57,2.57,0,0,0,2.11-4l3.2-3.21a7.45,7.45,0,0,0,4.27,1.66v8.36a4.07,4.07,0,1,0,.89,0V31.76a7.4,7.4,0,0,0,4.26-1.66l3.13,3.13a2.63,2.63,0,0,0-.5,1.55A2.68,2.68,0,1,0,32.8,32.1a2.73,2.73,0,0,0-1.56.5l-3.09-3.1a7.44,7.44,0,0,0,2-4.29h6.32A6.75,6.75,0,1,0,43.24,18ZM12.59,15.24a1,1,0,1,1,1-1A1,1,0,0,1,12.59,15.24ZM32.81,33.31a1.48,1.48,0,1,1-1.48,1.47A1.47,1.47,0,0,1,32.81,33.31ZM43.24,29a4.24,4.24,0,1,1,4.24-4.23A4.23,4.23,0,0,1,43.24,29Z"/><g class="cls-8"><rect class="cls-4" x="-0.1" y="14.83" width="89" height="44.55" transform="translate(-13.23 42.27) rotate(-45)"/></g><g class="cls-9"><g class="cls-8"><rect class="cls-4" x="-0.1" y="14.83" width="89" height="44.55" transform="translate(-13.23 42.27) rotate(-45)"/></g></g></g></g></svg>