<svg xmlns="http://www.w3.org/2000/svg" xmlns:xlink="http://www.w3.org/1999/xlink" viewBox="0 0 50 50"><defs><style>.cls-1{fill:none;}.cls-2{isolation:isolate;}.cls-3{fill:url(#未命名的渐变_70);}.cls-4{clip-path:url(#clip-path);}.cls-5{opacity:0.4;mix-blend-mode:soft-light;}.cls-6{opacity:0.2;}.cls-7{fill:url(#未命名的渐变_70-2);}.cls-8{clip-path:url(#clip-path-3);}.cls-9{fill:url(#未命名的渐变_70-3);}.cls-10{fill:url(#未命名的渐变_70-4);}.cls-11{clip-path:url(#clip-path-5);}</style><linearGradient id="未命名的渐变_70" x1="22.03" y1="26.04" x2="29.59" y2="33.6" gradientUnits="userSpaceOnUse"><stop offset="0" stop-color="#abd5b2"/><stop offset="1" stop-color="#36a785"/></linearGradient><clipPath id="clip-path"><path class="cls-1" d="M19.54,28.78H30.47a.23.23,0,0,1,.16.39l-5.47,5.47a.22.22,0,0,1-.32,0l-5.47-5.47A.23.23,0,0,1,19.54,28.78Z"/></clipPath><linearGradient id="未命名的渐变_70-2" x1="15.39" y1="4.04" x2="34.61" y2="23.29" xlink:href="#未命名的渐变_70"/><clipPath id="clip-path-3"><path class="cls-1" d="M25,.06a13.61,13.61,0,1,0,13.6,13.6A13.6,13.6,0,0,0,25,.06Zm0,24.18A10.58,10.58,0,1,1,35.58,13.66,10.58,10.58,0,0,1,25,24.24Z"/></clipPath><linearGradient id="未命名的渐变_70-3" x1="20.73" y1="9.39" x2="29.27" y2="17.94" xlink:href="#未命名的渐变_70"/><linearGradient id="未命名的渐变_70-4" x1="11.05" y1="23.88" x2="38.95" y2="51.82" xlink:href="#未命名的渐变_70"/><clipPath id="clip-path-5"><path class="cls-1" d="M45.2,37.85c1.58-1.14,2.47-2.42,2.47-3.78,0-3.5-5.9-6.49-14.25-7.72l-.07,0c6.68,1.09,11.3,3.43,11.3,6.16,0,1.28-1,2.48-2.81,3.5a43.34,43.34,0,0,0-13.23-2.64h0c5.3.34,9.85,1.41,12.74,2.91-3.53,1.82-9.53,3-16.34,3s-12.81-1.2-16.34-3c2.89-1.5,7.44-2.57,12.74-2.91h0A43.34,43.34,0,0,0,8.16,36.06c-1.78-1-2.81-2.22-2.81-3.5,0-2.73,4.63-5.07,11.3-6.16l-.07,0C8.23,27.58,2.33,30.57,2.33,34.07c0,1.36.89,2.64,2.47,3.78C3.22,39,2.33,40.27,2.33,41.63c0,4.59,10.15,8.31,22.67,8.31s22.67-3.72,22.67-8.31C47.67,40.27,46.78,39,45.2,37.85ZM25,46.92c-10.85,0-19.65-3.05-19.65-6.81a2.82,2.82,0,0,1,.53-1.57C9.91,40.85,17,42.38,25,42.38s15.09-1.53,19.12-3.84a2.82,2.82,0,0,1,.53,1.57C44.65,43.87,35.85,46.92,25,46.92Z"/></clipPath></defs><title>首页图标</title><g class="cls-2"><g id="图层_1" data-name="图层 1"><path class="cls-3" d="M19.54,28.78H30.47a.23.23,0,0,1,.16.39l-5.47,5.47a.22.22,0,0,1-.32,0l-5.47-5.47A.23.23,0,0,1,19.54,28.78Z"/><g class="cls-4"><rect class="cls-5" x="-1.5" y="16.32" width="88.78" height="44.44" transform="translate(-14.69 41.62) rotate(-45)"/></g><g class="cls-6"><g class="cls-4"><rect class="cls-5" x="-1.5" y="16.32" width="88.78" height="44.44" transform="translate(-14.69 41.62) rotate(-45)"/></g></g><path class="cls-7" d="M25,.06a13.61,13.61,0,1,0,13.6,13.6A13.6,13.6,0,0,0,25,.06Zm0,24.18A10.58,10.58,0,1,1,35.58,13.66,10.58,10.58,0,0,1,25,24.24Z"/><g class="cls-8"><rect class="cls-5" x="-3.72" y="18.54" width="88.78" height="44.44" transform="translate(-16.91 40.7) rotate(-45)"/></g><g class="cls-6"><g class="cls-8"><rect class="cls-5" x="-3.72" y="18.54" width="88.78" height="44.44" transform="translate(-16.91 40.7) rotate(-45)"/></g></g><circle class="cls-9" cx="25" cy="13.66" r="6.05"/><path class="cls-10" d="M45.2,37.85c1.58-1.14,2.47-2.42,2.47-3.78,0-3.5-5.9-6.49-14.25-7.72l-.07,0c6.68,1.09,11.3,3.43,11.3,6.16,0,1.28-1,2.48-2.81,3.5a43.34,43.34,0,0,0-13.23-2.64h0c5.3.34,9.85,1.41,12.74,2.91-3.53,1.82-9.53,3-16.34,3s-12.81-1.2-16.34-3c2.89-1.5,7.44-2.57,12.74-2.91h0A43.34,43.34,0,0,0,8.16,36.06c-1.78-1-2.81-2.22-2.81-3.5,0-2.73,4.63-5.07,11.3-6.16l-.07,0C8.23,27.58,2.33,30.57,2.33,34.07c0,1.36.89,2.64,2.47,3.78C3.22,39,2.33,40.27,2.33,41.63c0,4.59,10.15,8.31,22.67,8.31s22.67-3.72,22.67-8.31C47.67,40.27,46.78,39,45.2,37.85ZM25,46.92c-10.85,0-19.65-3.05-19.65-6.81a2.82,2.82,0,0,1,.53-1.57C9.91,40.85,17,42.38,25,42.38s15.09-1.53,19.12-3.84a2.82,2.82,0,0,1,.53,1.57C44.65,43.87,35.85,46.92,25,46.92Z"/><g class="cls-11"><rect class="cls-5" x="-4.26" y="19.08" width="88.78" height="44.44" transform="translate(-17.45 40.47) rotate(-45)"/></g><g class="cls-6"><g class="cls-11"><rect class="cls-5" x="-4.26" y="19.08" width="88.78" height="44.44" transform="translate(-17.45 40.47) rotate(-45)"/></g></g></g></g></svg>